<svg xmlns="http://www.w3.org/2000/svg" version="1.1" viewBox="-5.0 -10.0 110.0 135.0">
 <path d="m89.742 52.785c0 0.51562-0.41797 0.92969-0.92969 0.92969h-35.148c-0.51562 0-0.92969-0.41406-0.92969-0.92969v-26.508c-0.007813-0.25391 0.085937-0.49609 0.26172-0.67969 0.17188-0.17969 0.41406-0.28125 0.66797-0.28125 0.25 0 0.49219 0.10156 0.66797 0.28125 0.17578 0.18359 0.26953 0.42578 0.26172 0.67969v25.578h5.8008v-18.051c0-0.51172 0.41797-0.92969 0.92969-0.92969 0.51562 0 0.93359 0.41797 0.93359 0.92969v18.051h5.7422v-8.1641c-0.007812-0.25391 0.085938-0.5 0.26172-0.67969 0.17578-0.17969 0.41797-0.28516 0.66797-0.28516 0.25391 0 0.49609 0.10547 0.66797 0.28516 0.17578 0.17969 0.27344 0.42578 0.26172 0.67969v8.1641h5.7461l0.003906-11.887c0-0.51562 0.41406-0.93359 0.92969-0.93359 0.51563 0 0.92969 0.41797 0.92969 0.93359v11.887h5.75v-4.9609c0.019531-0.50391 0.42969-0.90234 0.93359-0.90234 0.5 0 0.91406 0.39844 0.92969 0.90234v4.9609h3.7305c0.24609 0 0.48047 0.097656 0.65625 0.27344 0.17578 0.17188 0.27344 0.41016 0.27344 0.65625zm-30.699-25.578 0.46875-4.5469h-0.003907c0.03125-0.29297 0.19922-0.55859 0.45703-0.70703 0.25781-0.14844 0.57031-0.16797 0.84375-0.046875l4.1719 1.8633v0.003907c0.46875 0.20703 0.67969 0.75781 0.46875 1.2305-0.21094 0.46875-0.76172 0.67969-1.2305 0.46875l-1.4688-0.65625 6.9688 12 6.2422-5.0156c0.37891-0.30859 0.93359-0.26562 1.2656 0.09375l10.109 10.992c0.17578 0.17969 0.26953 0.42578 0.26172 0.67578-0.007812 0.25-0.11719 0.48828-0.30078 0.66016-0.18359 0.16797-0.42969 0.25781-0.67969 0.24219-0.25391-0.011719-0.48828-0.12891-0.65234-0.31641l-9.5195-10.348-6.3984 5.1445c-0.21094 0.16797-0.48828 0.23828-0.75391 0.1875-0.26562-0.046874-0.49609-0.21094-0.63281-0.44531l-7.5898-13.059-0.17969 1.7695c-0.046875 0.47266-0.44922 0.83203-0.92578 0.83594h-0.10156 0.003907c-0.51172-0.054687-0.88281-0.51562-0.82813-1.0273zm2.1875-3.0742-0.023438 0.21484c0.042969-0.039062 0.089844-0.074218 0.14062-0.10156 0.019532-0.011719 0.039063-0.023438 0.0625-0.03125zm-12.73 5.6406v43.5c-0.003906 2.6758-2.168 4.8398-4.8438 4.8438h-28.555c-2.6758-0.003907-4.8398-2.168-4.8438-4.8438v-43.5c0.003907-2.6719 2.168-4.8398 4.8438-4.8398h28.559c2.6719 0.003906 4.8359 2.168 4.8398 4.8398zm-1.8633 0c0-1.6445-1.3359-2.9766-2.9805-2.9805h-28.555c-1.6484 0.003906-2.9805 1.3359-2.9844 2.9805v43.5c0 1.6484 1.3359 2.9844 2.9844 2.9883h28.559c1.6445-0.003907 2.9805-1.3359 2.9805-2.9844zm-2.9883 1.4688v15.324c0 0.25-0.097657 0.48438-0.26953 0.66016-0.17578 0.17578-0.41406 0.27344-0.66016 0.26953h-26.676c-0.24609 0.003906-0.48438-0.09375-0.66016-0.26953-0.17187-0.17578-0.26953-0.41016-0.26953-0.66016v-15.324c0-0.51563 0.41406-0.93359 0.92969-0.93359h26.676c0.51562 0 0.92969 0.41797 0.92969 0.93359zm-1.8633 0.92969h-24.812v13.465h24.816zm-19.398 21.945v5.3438-0.003907c0 0.24609-0.097657 0.48438-0.26953 0.66016-0.17578 0.17187-0.41406 0.26953-0.66016 0.26953h-5.4141c-0.51562 0-0.92969-0.41406-0.92969-0.92969v-5.3438c0-0.51172 0.41406-0.92969 0.92969-0.92969h5.4141c0.24609 0 0.48438 0.097656 0.65625 0.27344 0.17578 0.17578 0.27344 0.41016 0.27344 0.65625zm-1.8594 0.92969h-3.5547v3.4805h3.5508zm12.492-0.92969v5.3438-0.003907c0 0.24609-0.097656 0.48438-0.27344 0.66016-0.17188 0.17187-0.41016 0.26953-0.65625 0.26953h-5.4141c-0.51562 0-0.93359-0.41406-0.93359-0.92969v-5.3438c0-0.51172 0.41797-0.92969 0.93359-0.92969h5.4141c0.24609 0 0.48047 0.097656 0.65625 0.27344 0.17578 0.17578 0.27344 0.41016 0.27344 0.65625zm-1.8594 0.92969h-3.5547v3.4805h3.5508zm12.492-0.92969v5.3438-0.003907c0 0.24609-0.097656 0.48438-0.27344 0.66016-0.17578 0.17187-0.41016 0.26953-0.65625 0.26953h-5.418c-0.24609 0-0.48047-0.097657-0.65625-0.26953-0.17578-0.17578-0.27344-0.41406-0.27344-0.66016v-5.3438c0-0.24609 0.097656-0.48047 0.27344-0.65625 0.17578-0.17578 0.41016-0.27344 0.65625-0.27344h5.4141c0.24609 0 0.48438 0.097656 0.66016 0.27344 0.17188 0.17578 0.26953 0.41016 0.26953 0.65625zm-1.8633 0.92969h-3.5508v3.4805h3.5508zm-19.398 8.9297v5.3438-0.003906c0 0.25-0.097656 0.48438-0.27344 0.66016-0.17188 0.17578-0.41016 0.27344-0.65625 0.27344h-5.418c-0.51562 0-0.92969-0.41797-0.92969-0.93359v-5.3398c0-0.24609 0.097657-0.48437 0.26953-0.66016 0.17578-0.17188 0.41406-0.26953 0.66016-0.26953h5.4141c0.51172 0 0.92969 0.41406 0.92969 0.92969zm-1.8594 0.92969h-3.5586v3.4805h3.5508zm12.492-0.92969v5.3438-0.003906c0 0.25-0.097657 0.48438-0.27344 0.66016-0.17578 0.17578-0.41016 0.27344-0.65625 0.27344h-5.418c-0.51562 0-0.93359-0.41797-0.93359-0.93359v-5.3398c0-0.24609 0.10156-0.48437 0.27344-0.66016 0.17578-0.17188 0.41406-0.26953 0.66016-0.26953h5.4141c0.51172 0 0.92969 0.41406 0.92969 0.92969zm-1.8594 0.92969h-3.5586v3.4805h3.5508zm12.492-0.92969v5.3438l-0.003906-0.003906c0 0.25-0.097656 0.48438-0.26953 0.66016-0.17578 0.17578-0.41406 0.27344-0.66016 0.27344h-5.418c-0.24609 0-0.48047-0.097656-0.65625-0.27344-0.17578-0.17578-0.27344-0.41016-0.27344-0.66016v-5.3398c0-0.51562 0.41797-0.92969 0.92969-0.92969h5.4141c0.24609 0 0.48438 0.097656 0.66016 0.26953 0.17188 0.17578 0.26953 0.41406 0.26953 0.66016zm-1.8633 0.92969h-3.5547v3.4805h3.5508zm45.781 2.2383h-0.003907c0.003907 3.8984-2.0547 7.5078-5.4062 9.4922-3.3555 1.9844-7.5078 2.0547-10.922 0.17578-3.418 1.875-7.5703 1.8086-10.926-0.17578-3.3555-1.9844-5.4141-5.5938-5.4141-9.4922 0-3.8984 2.0586-7.5078 5.4141-9.4922 3.3555-1.9844 7.5078-2.0547 10.926-0.17578 3.4141-1.875 7.5664-1.8086 10.922 0.17578 3.3516 1.9883 5.4102 5.5938 5.4062 9.4922zm-18.105 8.457c-2.5078-2.0938-3.9609-5.1914-3.9609-8.4609s1.4531-6.3672 3.9609-8.4609c-2.8281-1.1836-6.0625-0.87109-8.6172 0.82812-2.5547 1.6992-4.0859 4.5664-4.0859 7.6328s1.5312 5.9336 4.0859 7.6328c2.5547 1.6992 5.7891 2.0117 8.6172 0.82812zm1.7656-15.934h0.003906c-0.97656 0.69141-1.8047 1.5664-2.4492 2.5781h4.8945c-0.64062-1.0078-1.4727-1.8828-2.4453-2.5742zm2.4492 12.371h-4.8945c0.64453 1.0117 1.4727 1.8867 2.4492 2.5781 0.97266-0.69141 1.8047-1.5664 2.4453-2.5781zm1.375-3.9648h-7.6445c0.074219 0.71875 0.23438 1.4219 0.47266 2.1016h6.6992c0.24219-0.67969 0.39844-1.3828 0.47266-2.1016zm-0.47266-3.9648h-6.6992c-0.23828 0.67969-0.39844 1.3828-0.47266 2.1016h7.6445c-0.074219-0.71875-0.23047-1.4219-0.47266-2.1016zm11.117 3.0352h0.003906c0-3.0664-1.5312-5.9297-4.0859-7.6289-2.5508-1.7031-5.7852-2.0117-8.6133-0.83203 2.5078 2.0938 3.957 5.1914 3.957 8.4609-0.003906 3.2656-1.4531 6.3633-3.9648 8.457 2.8281 1.1797 6.0625 0.86719 8.6133-0.83203 2.5547-1.6992 4.0859-4.5625 4.0859-7.6289z"/>
<text x="0.0" y="117.5" font-size="5.0" font-weight="bold" font-family="Arbeit Regular, Helvetica, Arial-Unicode, Arial, Sans-serif" fill="#000000">Created by azaya</text><text x="0.0" y="122.5" font-size="5.0" font-weight="bold" font-family="Arbeit Regular, Helvetica, Arial-Unicode, Arial, Sans-serif" fill="#000000">from Noun Project</text></svg>